# AST/ASF file generated using VICON BodyLanguage
# -----------------------------------------------
:version 1.10
:name VICON
:units
  mass 1.0
  length 0.45
  angle deg
:documentation
   .ast/.asf automatically generated from VICON data using
   VICON BodyBuilder and BodyLanguage model FoxedUp or BRILLIANT.MOD
:root
   order TX TY TZ RX RY RZ
   axis XYZ
   position 0 0 0  
   orientation 0 0 0 
:bonedata
  begin
     id 1 
     name lhipjoint
     direction 0.440178 -0.822639 0.359871 
     length 2.53113 
     axis 0 0 0  XYZ
  end
  begin
     id 2 
     name lfemur
     direction 0.34202 -0.939693 0  
     length 7.88132  
     axis 0 0 20  XYZ
    dof rx ry rz
    limits (-160.0 20.0)
           (-70.0 70.0)
           (-60.0 70.0)
  end
  begin
     id 3 
     name ltibia
     direction 0.34202 -0.939693 0   
     length 8.43783   
     axis 0 0 20   XYZ
    dof rx
    limits (-10.0 170.0)
  end
  begin
     id 4 
     name lfoot
     direction 0.0886351 -0.243523 0.965837   
     length 2.63414   
     axis -90 7.62852e-016 20   XYZ
    dof rx rz
    limits (-45.0 90.0)
           (-70.0 20.0)
  end
  begin
     id 5 
     name ltoes
     direction 1.53703e-011 -4.21717e-011 1   
     length 1.31427   
     axis -90 7.62852e-016 20   XYZ
    dof rx
    limits (-90.0 20.0)
  end
  begin
     id 6 
     name rhipjoint
     direction -0.399779 -0.839773 0.367367   
     length 2.47948  
     axis 0 0 0  XYZ 
  end
  begin
     id 7 
     name rfemur
     direction -0.34202 -0.939693 0   
     length 7.74806   
     axis 0 0 -20   XYZ
    dof rx ry rz
    limits (-160.0 20.0)
           (-70.0 70.0)
           (-70.0 60.0)
  end
  begin
     id 8 
     name rtibia
     direction -0.34202 -0.939693 0   
     length 8.74432   
     axis 0 0 -20   XYZ
    dof rx
    limits (-10.0 170.0)
 end
 begin
     id 9 
     name rfoot
     direction -0.108514 -0.298139 0.948334   
     length 2.66102  
     axis -90 -7.62852e-016 -20   XYZ
    dof rx rz
    limits (-45.0 90.0)
           (-20.0 70.0)
  end
  begin
     id 10 
     name rtoes
     direction -1.53392e-011 -4.22077e-011 1   
     length 1.31983   
     axis -90 -7.62852e-016 -20   XYZ
    dof rx
    limits (-90.0 20.0)
  end
  begin
     id 11 
     name lowerback
     direction 0.0113257 0.999866 0.0118602   
     length 2.58694   
     axis 0 0 0   XYZ
    dof rx ry rz
    limits (-20.0 45.0)
           (-30.0 30.0)
           (-30.0 30.0)
  end
  begin
     id 12 
     name upperback
     direction -0.0164747 0.995193 -0.0965375   
     length 2.52368   
     axis 0 0 0   XYZ
    dof rx ry rz
    limits (-20.0 45.0)
           (-30.0 30.0)
           (-30.0 30.0)
  end
  begin
     id 13 
     name thorax
     direction -0.0194301 0.99433 -0.104552   
     length 2.56099   
     axis 0 0 0   XYZ
    dof rx ry rz
    limits (-20.0 45.0)
           (-30.0 30.0)
           (-30.0 30.0)
  end
  begin
     id 14 
     name lowerneck
     direction 0.0148543 0.995587 -0.092657   
     length 1.71582   
     axis 0 0 0   XYZ
    dof rx ry rz
    limits (-20.0 45.0)
           (-30.0 30.0)
           (-30.0 30.0)
  end
  begin
     id 15 
     name upperneck
     direction -0.0135467 0.993656 -0.111639   
     length 1.68937   
     axis 0 0 0   XYZ
    dof rx ry rz
    limits (-20.0 45.0)
           (-30.0 30.0)
           (-30.0 30.0)
  end
  begin
     id 16
     name head
     direction -0.00615349 0.999547 -0.029448  
     length 1.7462  
     axis 0 0 0   XYZ
    dof rx ry rz
    limits (-20.0 45.0)
           (-30.0 30.0)
           (-30.0 30.0)
  end
  begin
     id 17 
     name lclavicle
     direction 0.988267 0.149885 0.0293713  
     length 4.47222  
     axis 0 0 0   XYZ
    dof ry rz
    limits (-20.0 10.0)
           (0.0 20.0)
  end
  begin
     id 18 
     name lhumerus
     direction 1 -4.48986e-011 -1.14833e-027   
     length 5.37148   
     axis 180 -30 -90   XYZ
    dof rx ry rz
    limits (-60.0 90.0)
           (-90.0 90.0)
           (-90.0 90.0)
  end
  begin
     id 19
     name lradius
     direction 0.999998 0.00170963 -0.000987055   
     length 3.94212   
     axis 180 -30 -90   XYZ
    dof rx
    limits (-10.0 170.0)
  end
  begin
     id 20
     name lwrist
     direction 0.999998 7.53149e-005 -0.00194706   
     length 1.97106   
     axis 4.65056e-015 90 90   XYZ
    dof ry
    limits (-180.0 0.0)
 end
  begin
     id 21 
     name lhand
     direction 1 -4.48973e-011 -1.31746e-026   
     length 1.17917   
     axis 8.4065e-015 90 90   XYZ
    dof rx rz
    limits (-90.0 90.0)
           (-45.0 45.0)
  end
  begin
     id 22 
     name lfingers
     direction 1 -4.49107e-011 -2.63492e-026   
     length 0.950679   
     axis 1.6813e-014 90 90   XYZ
    dof rx
    limits (0.0 90.0)
  end
  begin
     id 23
     name lthumb
     direction 0.707107 -6.35048e-011 0.707107   
     length 1.36499   
     axis -90 45 2.85299e-015   XYZ
    dof rx rz
    limits (-45.0 45.0)
           (-45.0 45.0)
  end
  begin
     id 24 
     name rclavicle
     direction -0.996699 0.0642895 -0.0495725   
     length 4.62611  
     axis 0 0 0   XYZ 
    dof ry rz
    limits (-10.0 20.0)
           (-20.0 0.0)
  end
  begin
     id 25 
     name rhumerus
     direction -1 -4.48919e-011 -2.41059e-027  
     length 5.4981   
     axis 180 30 90   XYZ
    dof rx ry rz
    limits (-90.0 60.0)
           (-90.0 90.0)
           (-90.0 90.0)
  end
  begin
     id 26 
     name rradius
     direction -0.999999 0.00118101 -0.000681858   
     length 3.48381   
     axis 180 30 90   XYZ
    dof rx
    limits (-10.0 170.0)
  end
  begin
     id 27 
     name rwrist
     direction -0.999999 0.000321823 -0.00132288   
     length 1.7419   
     axis 4.65056e-015 -90 -90   XYZ
    dof ry
    limits (-180.0 0.0)
  end
  begin
     id 28
     name rhand
     direction -1 -4.49022e-011 -1.31746e-026   
     length 1.34932   
     axis 8.4065e-015 -90 -90   XYZ
    dof rx rz
    limits (-90.0 90.0)
           (-45.0 45.0)
  end
  begin
     id 29
     name rfingers
     direction -1 -4.49178e-011 -2.63492e-026   
     length 1.08785   
     axis 1.6813e-014 -90 -90   XYZ
    dof rx
    limits (0.0 90.0)
  end
  begin
     id 30
     name rthumb
     direction -0.707107 -6.34713e-011 0.707107   
     length 1.56195   
     axis -90 -45 -2.85299e-015   XYZ
    dof rx rz
    limits (-45.0 45.0)
           (-45.0 45.0)
  end
:hierarchy
  begin
    root lhipjoint rhipjoint lowerback
    lhipjoint lfemur
    lfemur ltibia
    ltibia lfoot
    lfoot ltoes
    rhipjoint rfemur
    rfemur rtibia
    rtibia rfoot
    rfoot rtoes
    lowerback upperback
    upperback thorax
    thorax lowerneck lclavicle rclavicle
    lowerneck upperneck
    upperneck head
    lclavicle lhumerus
    lhumerus lradius
    lradius lwrist
    lwrist lhand lthumb
    lhand lfingers
    rclavicle rhumerus
    rhumerus rradius
    rradius rwrist
    rwrist rhand rthumb
    rhand rfingers
  end

#!OML:ASF X:\für Bonn\!DataBase\2005_08_10_Bjorn_Final\c3d\bjorn.ASF
:FULLY-SPECIFIED
:DEGREES
16
root -22.0539 19.4448 0.675466 -3.31251 -86.2307 10.2888
lowerback -11.6252 0.929448 -1.25773
upperback 5.03994 1.56269 -1.17696
thorax 12.0511 0.686647 -0.237213
lowerneck -3.02132 -2.27075 6.86347
upperneck 5.76808 -3.16704 -4.30267
head 2.19262 -1.55566 -2.68818
rclavicle 1.38155e-014 8.74653e-015
rhumerus -36.5339 -35.8545 -73.9179
rradius 16.6413
rwrist 21.9462
rhand -11.9983 6.21301
rfingers 7.12502
rthumb 14.0587 -23.2915
lclavicle 1.38155e-014 8.74653e-015
lhumerus -61.8794 59.8729 28.6684
lradius 11.5033
lwrist -97.0484
lhand -19.734 -12.677
lfingers 7.12502
lthumb 6.59657 17.2002
rfemur -13.0573 -15.0324 15.7402
rtibia 24.7639
rfoot -11.4848 17.9992
rtoes 0.204439
lfemur -13.0579 16.8878 -17.5852
ltibia 23.8999
lfoot -8.21113 -19.7314
ltoes 1.51904
17
root -22.0581 19.4445 0.674439 -3.25697 -86.2156 10.2559
lowerback -11.6914 0.901894 -1.30486
upperback 5.0337 1.53692 -1.19506
thorax 12.0837 0.67137 -0.235048
lowerneck -2.97173 -2.28167 6.87463
upperneck 5.68582 -3.1797 -4.2972
head 2.15544 -1.56198 -2.68555
rclavicle 1.25234e-014 1.03368e-014
rhumerus -36.2365 -33.9012 -75.3906
rradius 18.1136
rwrist 19.2039
rhand -12.2003 6.1218
rfingers 7.12502
rthumb 13.864 -23.3961
lclavicle 1.25234e-014 1.03368e-014
lhumerus -59.54 58.7399 31.552
lradius 11.5984
lwrist -95.3078
lhand -19.2915 -12.289
lfingers 7.12502
lthumb 7.02376 17.5745
rfemur -13.0693 -15.0201 15.7481
rtibia 24.7647
rfoot -11.4969 17.962
rtoes 0.268794
lfemur -13.0731 16.8557 -17.5872
ltibia 23.905
lfoot -8.2594 -19.7059
ltoes 1.38638
18
root -22.0629 19.4438 0.674068 -3.03634 -86.2153 10.0425
lowerback -11.7443 0.885025 -1.32297
upperback 5.02155 1.52084 -1.21718
thorax 12.1022 0.663316 -0.251754
lowerneck -2.88274 -2.29694 6.86643
upperneck 5.60291 -3.19577 -4.27278
head 2.11105 -1.56971 -2.67201
rclavicle 9.74045e-015 5.1684e-015
rhumerus -36.1606 -32.1037 -76.6818
rradius 19.7647
rwrist 16.7038
rhand -12.4405 6.07396
rfingers 7.12502
rthumb 13.6325 -23.4596
lclavicle 9.74045e-015 5.1684e-015
lhumerus -57.0046 57.3478 34.7474
lradius 11.753
lwrist -93.3734
lhand -19.0416 -11.9395
lfingers 7.12502
lthumb 7.26496 17.9158
rfemur -13.0614 -15.0006 15.7633
rtibia 24.7684
rfoot -11.5048 17.9492
rtoes 0.293032
lfemur -13.0673 16.8356 -17.5668
ltibia 23.9099
lfoot -8.25111 -19.7024
ltoes 1.51673
19
root -22.067 19.4434 0.673672 -3.01634 -86.2156 10.0368
lowerback -11.8028 0.858005 -1.37486
upperback 5.00999 1.49582 -1.22914
thorax 12.1237 0.647852 -0.24023
lowerneck -2.79127 -2.31716 6.78839
upperneck 5.51281 -3.2165 -4.21803
head 2.0646 -1.58049 -2.6352
rclavicle 3.77691e-015 -3.97569e-016
rhumerus -36.2137 -30.3145 -77.886
rradius 21.5811
rwrist 14.291
rhand -12.7795 6.10872
rfingers 7.12502
rthumb 13.3057 -23.4465
lclavicle 3.77691e-015 -3.97569e-016
lhumerus -54.5323 55.8169 37.9578
lradius 11.9198
lwrist -91.3433
lhand -18.9894 -11.6211
lfingers 7.12502
lthumb 7.31539 18.2324
rfemur -13.0662 -14.9974 15.7661
rtibia 24.7707
rfoot -11.5148 17.9511
rtoes 0.310681
lfemur -13.0703 16.8159 -17.5685
ltibia 23.9145
lfoot -8.30257 -19.6748
ltoes 1.38555
20
root -22.0718 19.4429 0.672798 -3.0088 -86.2223 10.0447
lowerback -11.871 0.836224 -1.42653
upperback 4.99947 1.47943 -1.25327
thorax 12.1526 0.636977 -0.240157
lowerneck -2.72286 -2.34099 6.71663
upperneck 5.4346 -3.24439 -4.15243
head 2.02604 -1.59446 -2.59694
rclavicle 1.23246e-014 -2.18663e-014
rhumerus -36.4163 -28.7938 -78.9167
rradius 23.4893
rwrist 12.1498
rhand -13.1412 6.2603
rfingers 7.12502
rthumb 12.9571 -23.3174
lclavicle 1.23246e-014 -2.18663e-014
lhumerus -52.3039 54.2511 40.9133
lradius 12.1204
lwrist -89.4292
lhand -18.9375 -11.2495
lfingers 7.12502
lthumb 7.36546 18.6023
rfemur -13.0709 -14.9765 15.7704
rtibia 24.7728
rfoot -11.5178 17.9416
rtoes 0.417992
lfemur -13.0722 16.8051 -17.5642
ltibia 23.9203
lfoot -8.2909 -19.6578
ltoes 1.4854
21
root -22.0759 19.4426 0.672545 -2.81181 -86.2229 9.86197
lowerback -11.9282 0.8215 -1.452
upperback 4.98848 1.46883 -1.28632
thorax 12.1753 0.631388 -0.263509
lowerneck -2.65505 -2.3732 6.61385
upperneck 5.34781 -3.28418 -4.04627
head 1.98494 -1.61406 -2.53945
rclavicle 6.4605e-015 -7.95139e-015
rhumerus -36.7017 -27.452 -79.8387
rradius 25.4655
rwrist 10.1503
rhand -13.4692 6.439
rfingers 7.12502
rthumb 12.6409 -23.1585
lclavicle 6.4605e-015 -7.95139e-015
lhumerus -50.1845 52.561 43.7808
lradius 12.3436
lwrist -87.4617
lhand -18.9905 -10.8708
lfingers 7.12502
lthumb 7.31432 18.9828
rfemur -13.0755 -15.0027 15.791
rtibia 24.7737
rfoot -11.5409 17.9568
rtoes 0.331984
lfemur -13.0765 16.7863 -17.5482
ltibia 23.9266
lfoot -8.31216 -19.6439
ltoes 1.47615
22
root -22.0803 19.442 0.672292 -2.80044 -86.2308 9.86423
lowerback -11.9876 0.798785 -1.49897
upperback 4.96797 1.45015 -1.31013
thorax 12.1876 0.619996 -0.266433
lowerneck -2.55588 -2.40983 6.46714
upperneck 5.27254 -3.32537 -3.95374
head 1.94236 -1.63533 -2.47814
rclavicle -7.25564e-015 -1.59028e-015
rhumerus -37.0979 -26.256 -80.6153
rradius 27.5253
rwrist 8.31416
rhand -13.7682 6.68353
rfingers 7.12502
rthumb 12.3526 -22.9316
lclavicle -7.25564e-015 -1.59028e-015
lhumerus -48.4319 50.9122 46.2947
lradius 12.5831
lwrist -85.705
lhand -19.0872 -10.4691
lfingers 7.12502
lthumb 7.22098 19.3877
rfemur -13.0753 -14.9897 15.7923
rtibia 24.7747
rfoot -11.5398 17.9574
rtoes 0.360219
lfemur -13.0785 16.7753 -17.5497
ltibia 23.9341
lfoot -8.35521 -19.6318
ltoes 1.38938
23
root -22.0847 19.4415 0.671592 -2.39992 -86.2543 9.47023
lowerback -12.0519 0.795336 -1.50663
upperback 4.95597 1.45285 -1.35142
thorax 12.2141 0.622479 -0.305851
lowerneck -2.48872 -2.45247 6.38053
upperneck 5.21642 -3.37877 -3.8715
head 1.91061 -1.66177 -2.4328
rclavicle -7.65321e-015 1.35174e-014
rhumerus -37.5086 -25.3026 -81.328
rradius 29.5918
rwrist 6.52848
rhand -14.0362 7.03023
rfingers 7.12502
rthumb 12.0942 -22.6002
lclavicle -7.65321e-015 1.35174e-014
lhumerus -47.0052 49.4332 48.3607
lradius 12.8084
lwrist -84.2476
lhand -19.2844 -10.1015
lfingers 7.12502
lthumb 7.03063 19.7617
rfemur -13.0721 -14.9655 15.8256
rtibia 24.7725
rfoot -11.5491 17.9594
rtoes 0.377961
lfemur -13.0765 16.779 -17.5139
ltibia 23.9424
lfoot -8.37681 -19.6167
ltoes 1.37305
24
root -22.0888 19.4411 0.671706 -2.38642 -86.2622 9.47111
lowerback -12.124 0.77393 -1.55734
upperback 4.94804 1.43722 -1.3759
thorax 12.2484 0.611982 -0.30665
lowerneck -2.42681 -2.49036 6.1945
upperneck 5.15873 -3.42305 -3.7647
head 1.88138 -1.68505 -2.36121
rclavicle 1.67973e-014 -1.94809e-014
rhumerus -37.9894 -24.3699 -81.9679
rradius 31.8861
rwrist 4.73424
rhand -14.2213 7.29167
rfingers 7.12502
rthumb 11.9158 -22.3492
lclavicle 1.67973e-014 -1.94809e-014
lhumerus -45.9445 48.213 50.0255
lradius 13.0274
lwrist -83.0761
lhand -19.5855 -9.82158
lfingers 7.12502
lthumb 6.73998 20.0512
rfemur -13.0749 -14.9819 15.8267
rtibia 24.7701
rfoot -11.5358 17.9854
rtoes 0.42432
lfemur -13.0802 16.7676 -17.5166
ltibia 23.9522
lfoot -8.45205 -19.5928
ltoes 1.1608
25
root -22.0932 19.4405 0.671504 -2.20108 -86.2918 9.2932
lowerback -12.1976 0.763239 -1.59238
upperback 4.94308 1.43431 -1.40813
thorax 12.2876 0.609038 -0.321956
lowerneck -2.39884 -2.52815 6.06741
upperneck 5.14859 -3.46869 -3.71919
head 1.87251 -1.70911 -2.32278
rclavicle 1.77912e-014 -1.86858e-014
rhumerus -38.5758 -23.4037 -82.651
rradius 34.5522
rwrist 2.7073
rhand -14.3752 7.34742
rfingers 7.12502
rthumb 11.7673 -22.302
lclavicle 1.77912e-014 -1.86858e-014
lhumerus -45.0916 47.191 51.3511
lradius 13.1909
lwrist -82.1742
lhand -19.9121 -9.60613
lfingers 7.12502
lthumb 6.42463 20.2764
rfemur -13.067 -14.964 15.8419
rtibia 24.7654
rfoot -11.5279 18.0006
rtoes 0.453123
lfemur -13.0726 16.7783 -17.4964
ltibia 23.9606
lfoot -8.47865 -19.5806
ltoes 1.15075
26
root -22.0976 19.4399 0.671326 -1.79497 -86.3226 8.89372
lowerback -12.2679 0.762849 -1.60382
upperback 4.93037 1.44207 -1.44942
thorax 12.3168 0.613586 -0.358141
lowerneck -2.34591 -2.56932 5.94762
upperneck 5.12354 -3.51873 -3.65741
head 1.85428 -1.73483 -2.27947
rclavicle -5.46658e-015 -7.15625e-015
rhumerus -39.3074 -22.5329 -83.3047
rradius 37.4848
rwrist 0.401331
rhand -14.4963 7.49021
rfingers 7.12502
rthumb 11.6505 -22.1659
lclavicle -5.46658e-015 -7.15625e-015
lhumerus -44.3828 46.265 52.4829
lradius 13.339
lwrist -81.2963
lhand -20.2679 -9.43529
lfingers 7.12502
lthumb 6.08118 20.4574
rfemur -13.0635 -14.9913 15.8773
rtibia 24.7613
rfoot -11.5345 18.0295
rtoes 0.414878
lfemur -13.0651 16.7888 -17.4603
ltibia 23.9695
lfoot -8.51239 -19.5847
ltoes 1.09574
